<svg width="26" height="23" viewBox="0 0 26 23" fill="none" xmlns="http://www.w3.org/2000/svg">
<path d="M10.8659 16.0552C10.859 16.5142 10.853 16.9733 10.844 17.4323C10.8261 18.3604 10.8062 19.2885 10.7863 20.2166C10.7753 20.7145 10.7634 21.2124 10.7465 21.7093C10.7444 21.8044 10.7283 21.8987 10.6987 21.9891C10.6419 22.1524 10.4946 22.2072 10.3313 22.1464C10.1949 22.0946 10.0774 22.0289 9.99878 21.8925C9.94303 21.7949 9.85541 21.7143 9.77378 21.6346C8.63482 20.5283 7.49289 19.4229 6.35294 18.3166C5.32947 17.3238 4.308 16.328 3.28453 15.3352C2.53585 14.6093 1.78419 13.8853 1.0365 13.1584C0.940924 13.0658 0.857291 12.9592 0.767688 12.8616C0.734972 12.8264 0.710002 12.7848 0.694396 12.7393C0.678791 12.6939 0.6729 12.6456 0.677093 12.5978C0.683067 12.4743 0.697997 12.3508 0.71094 12.2273C0.721891 12.1138 0.743798 12.0003 0.745789 11.8868C0.751763 11.4845 0.755742 11.0832 0.750764 10.6819C0.746782 10.3463 0.724875 10.0127 0.71691 9.67809C0.706954 9.20011 0.67709 8.72015 0.697002 8.24316C0.761715 6.76939 0.742797 5.29561 0.740806 3.82184C0.740806 3.41954 0.722885 3.01923 0.699987 2.61892C0.698991 2.60099 0.702973 2.5761 0.71492 2.56614C0.724876 2.55817 0.752755 2.56215 0.764702 2.57211C1.01858 2.7633 1.30929 2.89077 1.58108 3.05208C1.74436 3.14967 1.90763 3.25124 2.05797 3.36875C2.78972 3.94033 3.55334 4.46711 4.30999 5.00384C4.62161 5.22491 4.93124 5.45494 5.212 5.71285C5.84865 6.29292 6.5107 6.84446 7.1962 7.36586L9.37853 9.04876C9.55276 9.18219 9.723 9.32259 9.89623 9.45902C9.96294 9.51279 10.0296 9.56856 10.1013 9.61437C10.1422 9.63763 10.1878 9.65126 10.2347 9.6542C10.2975 9.65818 10.3512 9.62532 10.3691 9.56657C10.3821 9.52474 10.3861 9.464 10.3642 9.43313C10.3141 9.36363 10.2545 9.3016 10.1869 9.24891C9.74291 8.90038 9.29789 8.55385 8.85187 8.20731C8.06535 7.59689 7.27784 6.98946 6.49431 6.37605C6.30535 6.22891 6.12361 6.07271 5.94973 5.90802C5.36373 5.35727 4.73449 4.85444 4.06806 4.40437C3.47669 4.00008 2.90322 3.5679 2.32877 3.13772C2.06959 2.94128 1.79453 2.76676 1.50642 2.61593C1.41283 2.56714 1.32124 2.51635 1.22964 2.46557C0.991701 2.33886 0.799488 2.14068 0.680078 1.89896C0.65718 1.85415 0.674102 1.82527 0.698992 1.79938C0.765731 1.73026 0.850072 1.68068 0.942914 1.65598C1.06935 1.61615 1.20475 1.59624 1.31626 1.51458C1.33981 1.49842 1.36738 1.48911 1.39591 1.48769C1.73242 1.47276 2.053 1.37019 2.37855 1.30248C2.86639 1.2019 3.35422 1.12124 3.85202 1.08539C4.39661 1.04556 4.93323 0.957931 5.46885 0.853373C5.85315 0.778688 6.23845 0.708981 6.62374 0.634297C7.08171 0.544675 7.54067 0.449083 8.00163 0.365436C8.1211 0.344524 8.25053 0.347507 8.37299 0.359457C8.53726 0.37539 8.61193 0.457046 8.62288 0.620356C8.63283 0.762754 8.63482 0.907144 8.62686 1.05054C8.60993 1.32737 8.72941 1.52653 8.95043 1.68088C9.10176 1.78643 9.26304 1.86311 9.44524 1.89796C9.81062 1.96866 10.175 2.04832 10.5414 2.11305C10.6818 2.13795 10.8271 2.13396 10.9695 2.13795C11.0661 2.13994 11.1606 2.12599 11.2522 2.17081C11.2881 2.18453 11.3264 2.19032 11.3647 2.18774C11.6524 2.18874 11.9342 2.24549 12.2189 2.27835C12.2856 2.28632 12.3524 2.2913 12.4191 2.29528C12.9826 2.32814 13.5461 2.362 14.1106 2.35702C14.457 2.35404 14.7975 2.40383 15.139 2.43868C15.5004 2.47552 15.8608 2.51635 16.2242 2.51834C16.6752 2.51934 17.1242 2.5283 17.5742 2.54124C17.8799 2.5502 18.1865 2.55718 18.4902 2.59203C18.9183 2.64182 19.3424 2.70954 19.7665 2.78123C19.8661 2.79816 19.9606 2.8589 20.0522 2.90969C21.0458 3.46534 22.0105 4.06979 22.9793 4.66726C23.7449 5.13927 24.5065 5.61725 25.2741 6.08627C25.3916 6.15797 25.4573 6.24759 25.4702 6.38003C25.4782 6.46567 25.5001 6.55329 25.4871 6.63594C25.4513 6.89087 25.4234 7.14579 25.3249 7.38976C25.2571 7.57894 25.2225 7.77834 25.2223 7.97927C25.2144 8.18042 25.2173 8.38157 25.2104 8.58272C25.1905 9.08858 25.1705 9.59545 25.1447 10.1013C25.1098 10.8183 25.073 11.5343 25.0302 12.2502C25.0093 12.6037 24.9714 12.9553 24.9446 13.3088C24.9346 13.4422 24.9366 13.5766 24.9266 13.7101C24.8599 14.5894 24.8689 15.4696 24.8749 16.3499C24.8769 16.7522 24.8798 17.1535 24.8749 17.5558C24.8719 17.8536 24.8848 18.1483 24.9515 18.4391C24.9892 18.6276 24.9875 18.8219 24.9465 19.0097C24.9326 19.0824 24.8948 19.1302 24.8221 19.1491C24.7853 19.1581 24.7484 19.172 24.7126 19.181L19.2986 20.4546C17.8112 20.8041 16.3218 21.1536 14.8343 21.5051C13.9045 21.7242 12.9746 21.9423 12.0467 22.1683C11.7768 22.2378 11.492 22.2207 11.2323 22.1195C11.1576 22.0917 11.1218 22.0429 11.1168 21.9732C11.103 21.8209 11.0963 21.668 11.0969 21.5151C11.1039 21.075 11.1228 20.6358 11.1308 20.1957C11.1437 19.5155 11.1497 18.8364 11.1616 18.1563L11.2214 15.1998L11.2771 12.5878C11.2871 12.1198 11.302 11.6508 11.3149 11.1817C11.3159 11.1439 11.308 11.0981 11.3259 11.0692C11.4394 10.881 11.4722 10.655 11.6126 10.4787C11.762 10.2935 11.9511 10.172 12.1741 10.1063C13.0274 9.85435 13.8955 9.66316 14.7657 9.48093C15.3351 9.36143 15.9036 9.229 16.4751 9.11448C17.2337 8.96212 17.9934 8.81275 18.755 8.67832C19.3762 8.56878 20.0005 8.47717 20.6247 8.38556C21.1185 8.31286 21.5944 8.17245 22.0713 8.03205C22.6945 7.84683 23.3188 7.66759 23.941 7.48238C24.1152 7.43059 24.2845 7.36686 24.4567 7.30811C24.4746 7.30201 24.4919 7.29434 24.5085 7.2852C24.5426 7.26698 24.5691 7.23733 24.5835 7.20145C24.5979 7.16557 24.5992 7.12576 24.5871 7.08903C24.5692 7.03128 24.4955 6.97252 24.4348 6.97949C24.3683 6.98727 24.3026 7.00127 24.2387 7.02132C24.0376 7.08206 23.8394 7.14978 23.6383 7.20953C22.9693 7.40868 22.2983 7.59789 21.6322 7.80401C21.1733 7.94641 20.7024 8.02309 20.2304 8.09777C19.6829 8.18341 19.1333 8.25909 18.5877 8.35568C17.9197 8.47319 17.2536 8.60264 16.5876 8.73607C16.035 8.84661 15.4855 8.97407 14.9339 9.08859C14.0359 9.2758 13.1419 9.48292 12.2528 9.71096C12.1054 9.7488 11.9581 9.78962 11.8108 9.83144C11.6455 9.87924 11.4822 9.93202 11.31 9.94995C11.0979 9.97285 10.9784 10.0993 10.9725 10.3433C10.9545 11.0891 10.9446 11.835 10.9326 12.5808C10.9207 13.2699 10.9147 13.959 10.9008 14.6481C10.8908 15.1171 10.8709 15.5861 10.857 16.0542L10.8659 16.0552ZM18.5479 4.39441C18.5539 4.31873 18.5051 4.26496 18.4444 4.25699C18.33 4.24308 18.2141 4.25779 18.1069 4.29981C18.076 4.31077 18.0202 4.31276 18.0023 4.29384C17.8759 4.16439 17.7196 4.19426 17.5712 4.21318C17.3253 4.24405 17.0804 4.28687 16.8365 4.32769C16.7802 4.33818 16.7251 4.35454 16.6722 4.37649C16.6244 4.39541 16.6025 4.43723 16.6015 4.49001C16.6015 4.54876 16.6413 4.60552 16.6991 4.61349C16.7454 4.61912 16.7922 4.61879 16.8385 4.61249C17.169 4.56868 17.4995 4.52586 17.8291 4.47408C17.9117 4.46113 17.9725 4.45118 18.0182 4.53881C18.0312 4.5647 18.0879 4.5876 18.1178 4.58063C18.2462 4.55076 18.3856 4.54976 18.4961 4.4671C18.524 4.44719 18.5389 4.40736 18.5479 4.39541V4.39441ZM14.0817 18.5038C14.0787 18.453 14.0867 18.3833 14.0677 18.3216C14.0568 18.2837 14.011 18.2469 13.9712 18.229C13.9234 18.2081 13.8736 18.2369 13.8507 18.2808C13.8239 18.3304 13.8061 18.3843 13.7979 18.4401C13.776 18.6104 13.7601 18.7816 13.7432 18.9529C13.7233 19.162 13.6994 19.3711 13.6835 19.5803C13.6755 19.7027 13.7452 19.8013 13.8228 19.7964C13.8905 19.7924 13.9513 19.7157 13.9642 19.6032C14.004 19.2427 14.0419 18.8812 14.0817 18.5038ZM4.7829 1.98957C4.77493 1.90792 4.72515 1.85315 4.6684 1.85215C4.62105 1.8496 4.57356 1.85295 4.52703 1.86211C4.19251 1.94178 3.85899 2.02144 3.52547 2.10509C3.47938 2.11691 3.43562 2.13643 3.39604 2.16284C3.33133 2.20666 3.3383 2.31221 3.40301 2.362C3.46275 2.40581 3.52546 2.4098 3.59316 2.39187L4.61962 2.13297C4.65717 2.12616 4.69241 2.11007 4.72216 2.08616C4.75203 2.05629 4.76995 2.01048 4.7819 1.98957H4.7829ZM4.48621 13.7658C4.48621 13.8604 4.48123 13.9371 4.4882 14.0128C4.49218 14.0636 4.534 14.1054 4.58079 14.1074C4.62062 14.1084 4.68035 14.0855 4.70026 14.0536C4.73484 13.9971 4.75596 13.9334 4.76199 13.8674C4.79385 13.5159 4.81675 13.1644 4.88345 12.8178C4.8944 12.7571 4.86055 12.7043 4.8038 12.6804C4.75502 12.6595 4.67736 12.6734 4.65148 12.7222C4.61365 12.7969 4.56984 12.8766 4.55988 12.9582C4.52802 13.2331 4.50911 13.5089 4.48621 13.7658ZM15.824 4.38147C15.8578 4.37948 15.8867 4.37848 15.9146 4.3745L16.7329 4.25202L16.7598 4.24405C16.8116 4.23011 16.8644 4.16737 16.8594 4.11858C16.8544 4.06779 16.8245 4.02597 16.7748 4.01502C16.7011 3.99909 16.6234 3.97718 16.5517 3.98614C16.3068 4.02 16.0639 4.06381 15.82 4.10762C15.7832 4.1136 15.7383 4.12754 15.7184 4.15343C15.6913 4.19067 15.6773 4.23584 15.6786 4.28189C15.6796 4.31077 15.7184 4.34164 15.7473 4.36255C15.7682 4.37749 15.8011 4.37649 15.824 4.38246V4.38147ZM23.1674 11.6557H23.1615C23.1615 11.5223 23.1634 11.3889 23.1605 11.2564C23.1601 11.2093 23.1534 11.1624 23.1405 11.117C23.1176 11.0433 22.9992 11.0234 22.9514 11.0842C22.8897 11.1572 22.8571 11.2505 22.8598 11.3461C22.8668 11.4884 22.8628 11.6318 22.8727 11.7732C22.8797 11.8868 22.8966 12.0003 22.9165 12.1128C22.9234 12.1498 22.9423 12.1834 22.9703 12.2084C22.9962 12.2303 23.042 12.2452 23.0728 12.2373C23.0897 12.2315 23.1051 12.2221 23.1182 12.21C23.1312 12.1978 23.1415 12.183 23.1485 12.1666C23.1644 12.1238 23.1654 12.074 23.1664 12.0262C23.1684 11.9027 23.1664 11.7792 23.1664 11.6557H23.1674ZM22.7971 10.8432C22.7971 10.7844 22.7991 10.6609 22.7961 10.5375C22.7943 10.4902 22.7867 10.4434 22.7732 10.3981C22.7582 10.3463 22.6935 10.3035 22.6418 10.3045C22.592 10.3054 22.5332 10.3572 22.5213 10.41C22.5163 10.4289 22.5113 10.4478 22.5113 10.4658C22.5193 10.7127 22.5243 10.9607 22.5412 11.2066C22.5452 11.2694 22.581 11.3331 22.6159 11.3879C22.6318 11.4128 22.6826 11.4297 22.7154 11.4247C22.733 11.4206 22.7494 11.4127 22.7635 11.4015C22.7776 11.3903 22.7891 11.3761 22.7971 11.36C22.8142 11.3159 22.8216 11.2688 22.819 11.2216C22.816 11.117 22.807 11.0125 22.7971 10.8432ZM23.261 12.9513H23.256V12.6645C23.2558 12.6261 23.2504 12.5879 23.2401 12.551C23.2339 12.5279 23.2209 12.5072 23.2028 12.4915C23.1847 12.4759 23.1623 12.4661 23.1386 12.4633C23.0808 12.4544 23.0161 12.4872 22.9972 12.537C22.9872 12.5639 22.9743 12.5918 22.9743 12.6197C22.9783 12.8288 22.9812 13.0389 22.9932 13.249C22.9952 13.2928 23.0231 13.3406 23.0529 13.3745C23.0748 13.3994 23.1206 13.4193 23.1515 13.4143C23.1824 13.4093 23.2172 13.3765 23.2351 13.3466C23.2522 13.3126 23.2607 13.2751 23.26 13.2371C23.264 13.1425 23.261 13.0469 23.261 12.9513ZM9.8813 5.74073C9.83351 5.75368 9.77577 5.76264 9.725 5.78554C9.57665 5.85226 9.43129 5.92495 9.28693 5.99665C9.26105 6.00959 9.23915 6.02951 9.21824 6.04843C9.17642 6.08627 9.1605 6.15996 9.1824 6.20477C9.2043 6.25257 9.26404 6.27746 9.32875 6.2685C9.33871 6.26751 9.34866 6.2685 9.35762 6.26451C9.5647 6.16892 9.77179 6.07333 9.97887 5.97574C9.9938 5.96877 10.0048 5.94885 10.0167 5.93491C10.0565 5.88512 10.0326 5.78852 9.9719 5.76562C9.94602 5.75467 9.91814 5.74969 9.8813 5.74073ZM8.57011 17.8117H8.56115C8.56115 17.7072 8.56514 17.6026 8.56016 17.4991C8.55991 17.4747 8.55024 17.4513 8.53317 17.4338C8.5161 17.4164 8.49295 17.4062 8.46856 17.4055C8.42575 17.4045 8.371 17.4174 8.34113 17.4463C8.30824 17.4804 8.28909 17.5254 8.28737 17.5727C8.28438 17.753 8.28936 17.9342 8.29732 18.1145C8.30031 18.1593 8.3252 18.2041 8.3471 18.2459C8.37697 18.3037 8.47952 18.3096 8.51635 18.2539C8.54377 18.2159 8.56154 18.1718 8.56812 18.1254C8.57509 18.0218 8.57011 17.9163 8.57011 17.8117ZM12.9427 7.21749C12.9198 7.18463 12.9069 7.14181 12.879 7.12787C12.8392 7.10895 12.7844 7.09301 12.7456 7.10596C12.5495 7.17268 12.3543 7.24438 12.1632 7.32404C12.0835 7.3569 12.0935 7.49432 12.1722 7.53614C12.204 7.55307 12.2478 7.57299 12.2777 7.56402C12.4868 7.50428 12.6918 7.43159 12.878 7.31707C12.9059 7.29915 12.9178 7.25732 12.9427 7.21749ZM18.1298 6.77835C18.078 6.78134 18.0481 6.77735 18.0222 6.78631C17.8629 6.84307 17.7026 6.90083 17.5443 6.96456C17.5125 6.9775 17.4866 7.01136 17.4627 7.03924C17.4179 7.09003 17.4448 7.18164 17.5105 7.20156C17.5453 7.21251 17.5872 7.22147 17.62 7.21251C17.7913 7.16073 17.9615 7.10297 18.1317 7.04522C18.1487 7.03924 18.1646 7.02729 18.1815 7.01734C18.2283 6.98647 18.2642 6.91178 18.2363 6.87095C18.2064 6.83012 18.1576 6.80125 18.1298 6.77835ZM7.242 16.8329C7.24996 16.9225 7.25195 17.0081 7.26788 17.0908C7.27684 17.1396 7.31767 17.1694 7.37043 17.1754C7.42917 17.1824 7.4889 17.1495 7.50682 17.0968C7.51646 17.07 7.52314 17.0423 7.52674 17.0141C7.54366 16.8448 7.55959 16.6755 7.57353 16.5053C7.5785 16.4515 7.53371 16.3907 7.48194 16.3758C7.42917 16.3609 7.35649 16.3818 7.32961 16.4266C7.30572 16.4674 7.27883 16.5092 7.27087 16.555C7.25494 16.6477 7.25096 16.7423 7.242 16.8329ZM5.5933 4.60752C5.74762 4.56769 5.95171 4.50495 6.1349 4.38446C6.1807 4.35459 6.18866 4.27293 6.16178 4.23011C6.12893 4.17633 6.07417 4.14248 6.01942 4.16239C5.83344 4.22851 5.6495 4.30024 5.46786 4.37749C5.41111 4.40139 5.39319 4.45914 5.40514 4.52088C5.4151 4.57266 5.46786 4.60851 5.5933 4.60752ZM19.2976 15.5433C19.2976 15.4467 19.2996 15.4178 19.2976 15.39C19.2969 15.3612 19.2864 15.3335 19.2677 15.3115C19.249 15.2896 19.2234 15.2747 19.195 15.2695C19.1619 15.2647 19.1282 15.2712 19.0993 15.288C19.0703 15.3049 19.048 15.3309 19.0357 15.3621C19.0327 15.371 19.0268 15.38 19.0258 15.389C19.0009 15.5393 18.976 15.6897 18.9551 15.8411C18.9488 15.8789 18.9526 15.9177 18.966 15.9536C18.982 15.9865 19.0082 16.0135 19.0407 16.0303C19.0875 16.0522 19.1353 16.0342 19.1701 15.9974C19.1906 15.977 19.2053 15.9516 19.2129 15.9237C19.2478 15.7763 19.2797 15.627 19.2976 15.5433ZM7.29476 12.294C7.3097 12.3747 7.31866 12.4494 7.33956 12.5211C7.3545 12.5689 7.3993 12.5938 7.45107 12.5908C7.50284 12.5888 7.53868 12.5569 7.56058 12.5111C7.56888 12.4941 7.57459 12.476 7.57751 12.4574L7.64322 12.0092C7.64566 11.9904 7.64566 11.9713 7.64322 11.9525C7.64152 11.9288 7.63287 11.9062 7.61835 11.8874C7.60382 11.8686 7.58407 11.8545 7.56158 11.8469C7.53957 11.8378 7.51534 11.8353 7.49194 11.8399C7.46855 11.8445 7.44705 11.856 7.43016 11.8728C7.40196 11.8979 7.3807 11.9298 7.36843 11.9654C7.33857 12.075 7.31866 12.1855 7.29476 12.294ZM2.75787 7.00638C2.75588 6.97651 2.75588 6.94763 2.7519 6.91975C2.74393 6.84805 2.68917 6.79129 2.62446 6.78631C2.59085 6.78449 2.55778 6.79534 2.53179 6.81673C2.5058 6.83812 2.48877 6.86849 2.48408 6.90183C2.46228 7.03351 2.44336 7.16564 2.42733 7.29815C2.42411 7.33605 2.42579 7.3742 2.43232 7.41167C2.43714 7.44509 2.45392 7.47563 2.47955 7.49761C2.50519 7.51959 2.53794 7.53151 2.5717 7.53117C2.60043 7.53041 2.62806 7.51997 2.65011 7.50154C2.67216 7.4831 2.68733 7.45775 2.69315 7.4296C2.71705 7.28919 2.73597 7.14679 2.75787 7.00539V7.00638ZM5.23688 2.05928C5.39319 2.01945 5.5495 1.97961 5.70481 1.9358C5.7297 1.92982 5.75061 1.90294 5.77052 1.88203C5.82428 1.82527 5.79342 1.71772 5.71676 1.69781C5.68035 1.68673 5.64204 1.68334 5.60426 1.68785C5.49176 1.70777 5.38025 1.73167 5.26974 1.75955C5.2235 1.77133 5.17899 1.78907 5.13732 1.81233C5.06763 1.85017 5.06465 1.9597 5.13036 2.00651C5.16023 2.02841 5.19706 2.04036 5.23589 2.05928H5.23688ZM2.74692 7.82691C2.7509 7.89761 2.75289 7.98425 2.76284 8.06889C2.76981 8.12864 2.82855 8.17146 2.88431 8.16648C2.93508 8.1615 2.9759 8.13661 2.99084 8.08682C3.04559 7.9006 3.03763 7.70842 3.04062 7.51822C3.04062 7.46843 3.00079 7.43159 2.95101 7.41864C2.90123 7.40669 2.85146 7.41566 2.82159 7.45648C2.79225 7.49388 2.77182 7.53747 2.76185 7.58394C2.7499 7.65863 2.75189 7.7363 2.74692 7.82691ZM6.77905 3.70632C6.77208 3.6157 6.71235 3.56193 6.63967 3.56492C6.45946 3.57783 6.28671 3.64211 6.14187 3.75014C6.0911 3.784 6.07816 3.84175 6.09707 3.9025C6.113 3.95229 6.17373 3.99212 6.23646 3.9722C6.39816 3.92058 6.55759 3.8621 6.71433 3.79694C6.74819 3.782 6.76511 3.72724 6.77905 3.70732V3.70632ZM7.74975 15.9406C7.7597 15.8361 7.76966 15.7594 7.76966 15.6837C7.77165 15.6349 7.75174 15.5911 7.69897 15.5722C7.64521 15.5523 7.57353 15.5682 7.54366 15.611C7.52176 15.6419 7.49886 15.6758 7.49189 15.7116C7.46202 15.862 7.46102 16.0143 7.49288 16.1657C7.50057 16.1935 7.51665 16.2183 7.53892 16.2366C7.56119 16.255 7.58856 16.266 7.61733 16.2683C7.68005 16.2693 7.74377 16.2125 7.74875 16.1408C7.75373 16.0651 7.74975 15.9884 7.74975 15.9406ZM12.0806 4.56669C12.208 4.53682 12.3573 4.50694 12.5017 4.46213C12.5355 4.45217 12.5644 4.39242 12.5764 4.35259C12.5903 4.30181 12.5385 4.23708 12.4848 4.22314C12.4579 4.21617 12.427 4.20621 12.4011 4.21218C12.2808 4.23833 12.1612 4.26822 12.0427 4.30181C12.0069 4.31177 11.977 4.33965 11.9481 4.36355C11.8974 4.40836 11.9123 4.50694 11.975 4.53283C12.0009 4.54279 12.0288 4.54976 12.0806 4.56669ZM13.0094 12.3916C12.9597 12.4325 12.893 12.4583 12.881 12.4992C12.8599 12.5774 12.8556 12.6592 12.8685 12.7392C12.8813 12.8192 12.9111 12.8956 12.9557 12.9632C12.9855 13.015 13.0582 13.0419 13.103 13.023C13.1618 12.9971 13.2006 12.9453 13.1926 12.8895C13.1751 12.758 13.1485 12.628 13.113 12.5002C13.102 12.4623 13.0532 12.4354 13.0094 12.3916ZM2.64039 9.57752C2.64438 9.62831 2.64039 9.69801 2.6603 9.75875C2.67225 9.79759 2.71606 9.83244 2.75389 9.85435C2.7957 9.87626 2.86838 9.83245 2.89128 9.77867C2.94902 9.64225 2.93508 9.49985 2.91218 9.35944C2.90422 9.30865 2.83453 9.25986 2.78575 9.26185C2.73497 9.26185 2.67026 9.31165 2.6613 9.36343C2.65134 9.42915 2.64836 9.49487 2.64039 9.57752ZM8.81005 20.1558C8.81802 20.2604 8.82598 20.3391 8.8877 20.3928C8.91359 20.4157 8.95839 20.4327 8.99025 20.4267C9.02112 20.4207 9.06592 20.3849 9.0709 20.357C9.09579 20.2265 9.11171 20.0941 9.12465 19.9617C9.12963 19.9069 9.07786 19.8521 9.0231 19.8372C8.97432 19.8242 8.89667 19.8541 8.87875 19.9059C8.84888 19.9955 8.82897 20.0891 8.81005 20.1558ZM10.7395 6.03051C10.7405 5.94885 10.6718 5.87417 10.6121 5.87915C10.4707 5.8912 10.3361 5.94453 10.2248 6.0325C10.2029 6.05063 10.1877 6.07564 10.1817 6.10347C10.1758 6.13129 10.1794 6.16032 10.1919 6.18585C10.2188 6.23763 10.2775 6.27547 10.3323 6.25655C10.4478 6.21871 10.5623 6.17688 10.6718 6.12311C10.7076 6.10618 10.7246 6.05242 10.7395 6.03051ZM17.5901 11.2953C17.612 11.352 17.628 11.4177 17.6618 11.4725C17.6857 11.5123 17.7375 11.5372 17.7863 11.5163C17.8181 11.5024 17.8609 11.4715 17.8659 11.4426C17.8858 11.3122 17.8988 11.1798 17.9067 11.0473C17.9107 10.9935 17.852 10.9398 17.7982 10.9298C17.7484 10.9208 17.6758 10.9547 17.6588 11.0075C17.633 11.0991 17.615 11.1917 17.5901 11.2953ZM22.1579 17.7181C22.1579 17.7331 22.1529 17.7829 22.1659 17.8267C22.1758 17.8585 22.2037 17.8934 22.2326 17.9103C22.2774 17.9362 22.3321 17.9243 22.362 17.8834C22.4113 17.8134 22.4441 17.7332 22.4579 17.6486C22.4717 17.5641 22.4662 17.4775 22.4416 17.3955C22.4327 17.3616 22.3759 17.3288 22.3351 17.3188C22.3072 17.3109 22.2624 17.3367 22.2375 17.3606C22.2119 17.3881 22.1946 17.4223 22.1878 17.4592C22.1728 17.5339 22.1688 17.6106 22.1579 17.7181ZM1.93153 11.9555C1.94148 11.8798 1.90465 11.8131 1.84591 11.7922C1.78717 11.7713 1.71449 11.8031 1.68064 11.8678C1.61379 11.9931 1.59 12.137 1.61294 12.2771C1.6229 12.3379 1.65974 12.3787 1.72047 12.3926C1.76925 12.4046 1.83296 12.3667 1.84989 12.307C1.88175 12.1895 1.90564 12.07 1.93153 11.9555ZM6.78005 1.38214C6.68347 1.40106 6.55006 1.41301 6.44055 1.49865C6.39973 1.53051 6.37583 1.57831 6.39774 1.62412C6.41665 1.66196 6.45747 1.71174 6.49331 1.71473C6.64763 1.72867 6.79199 1.68188 6.91843 1.59126C6.95826 1.56238 6.96821 1.51159 6.95128 1.4618C6.93436 1.41002 6.89254 1.3921 6.84276 1.38513L6.77905 1.38214H6.78005ZM13.4375 13.481C13.4336 13.4123 13.4336 13.3655 13.4276 13.3187C13.4225 13.2907 13.4083 13.2651 13.3873 13.2458C13.3663 13.2266 13.3395 13.2148 13.3111 13.2122C13.2534 13.2072 13.1916 13.2401 13.1737 13.2918C13.1327 13.4183 13.1299 13.5541 13.1657 13.6822C13.174 13.7095 13.1903 13.7337 13.2125 13.7516C13.2347 13.7695 13.2618 13.7804 13.2902 13.7828C13.34 13.7857 13.4017 13.7409 13.4127 13.6842C13.4266 13.6105 13.4316 13.5348 13.4375 13.481ZM7.28381 3.3807C7.3983 3.34684 7.53868 3.34784 7.64222 3.25125C7.66612 3.22735 7.68703 3.17656 7.67807 3.14967C7.66413 3.10984 7.62729 3.05706 7.59145 3.05009C7.43315 3.02022 7.29178 3.07997 7.16633 3.17059C7.13846 3.1905 7.1285 3.25722 7.13547 3.29805C7.13946 3.32593 7.18525 3.34883 7.21511 3.36875C7.23005 3.37871 7.25195 3.37572 7.28381 3.3807ZM5.03677 12.1168C5.05071 12.1775 5.05668 12.2343 5.07859 12.2861C5.0871 12.3084 5.10334 12.3269 5.12436 12.3382C5.14537 12.3496 5.16976 12.353 5.19308 12.3478C5.22593 12.3408 5.27272 12.314 5.2777 12.2881C5.30757 12.1507 5.33345 12.0122 5.34441 11.8718C5.35138 11.7862 5.22593 11.7334 5.15325 11.7872C5.12338 11.8081 5.09352 11.839 5.08356 11.8718C5.06166 11.9525 5.05171 12.0371 5.03677 12.1168ZM4.21641 10.3931L4.20645 10.3921V10.3064C4.20514 10.2877 4.20247 10.2691 4.19848 10.2507C4.18753 10.1919 4.14173 10.1441 4.08897 10.1362C4.03023 10.1272 3.95656 10.178 3.94063 10.2447C3.91047 10.3644 3.91116 10.4898 3.94262 10.6092C3.95556 10.657 3.99339 10.6868 4.04516 10.6938C4.09992 10.7018 4.16862 10.6669 4.18156 10.6151C4.19849 10.5424 4.20546 10.4668 4.21641 10.3931ZM19.7536 4.38246C19.6679 4.41831 19.5594 4.45516 19.4609 4.50793C19.4091 4.53482 19.3941 4.59755 19.4101 4.65929C19.423 4.71108 19.4638 4.7529 19.5086 4.74892C19.6515 4.73988 19.7882 4.6878 19.9009 4.59955C19.9626 4.54976 19.9367 4.43923 19.8611 4.41234C19.8352 4.40239 19.8073 4.3974 19.7536 4.38246ZM7.03591 9.19414C7.05582 9.29969 7.07275 9.41222 7.09963 9.52275C7.11357 9.57951 7.17928 9.61237 7.23404 9.6054C7.26238 9.60027 7.2884 9.58636 7.3084 9.56563C7.32841 9.5449 7.34141 9.51841 7.34554 9.48989C7.35855 9.35632 7.3373 9.22162 7.28381 9.09854C7.25693 9.02784 7.13447 9.01888 7.09166 9.08161C7.07075 9.11248 7.05781 9.14933 7.03591 9.19414ZM9.02708 3.89154C8.87277 3.90847 8.75231 3.95527 8.65972 4.06082C8.64354 4.07801 8.63312 4.0998 8.62991 4.12318C8.6267 4.14656 8.63086 4.17037 8.6418 4.19128C8.6647 4.23808 8.70551 4.26497 8.75529 4.26098C8.88793 4.25057 9.01139 4.18918 9.09977 4.0897C9.12565 4.06182 9.13461 3.99709 9.11968 3.96125C9.10673 3.92739 9.05298 3.90947 9.02809 3.89154H9.02708ZM23.7419 13.4342C23.7449 13.4123 23.7538 13.3765 23.7558 13.3386C23.7566 13.3104 23.7484 13.2827 23.7322 13.2596C23.7161 13.2365 23.693 13.2191 23.6662 13.2102C23.6005 13.1893 23.5268 13.2162 23.5019 13.2789C23.4759 13.339 23.4582 13.4023 23.4492 13.4671C23.4451 13.5049 23.4503 13.5431 23.4641 13.5784C23.478 13.6138 23.5002 13.6453 23.5288 13.6702C23.5571 13.6935 23.5927 13.7062 23.6294 13.7061C23.6532 13.7047 23.6759 13.6951 23.6935 13.679C23.7111 13.6628 23.7225 13.6411 23.7259 13.6175C23.7359 13.5627 23.7359 13.5059 23.7409 13.4342H23.7419ZM3.01075 6.38999C3.00776 6.33721 3.00677 6.30833 3.00378 6.28045C2.99681 6.2207 2.95201 6.16992 2.89924 6.16195C2.84946 6.15498 2.78574 6.19182 2.76384 6.2446C2.71505 6.34785 2.69775 6.46318 2.71406 6.5762C2.72402 6.62599 2.75488 6.66184 2.80466 6.67578C2.85742 6.68972 2.92911 6.66183 2.94803 6.61005C2.9769 6.53139 2.99482 6.44874 3.01075 6.39099V6.38999ZM19.3344 14.8214C19.3464 14.8871 19.3503 14.9648 19.3772 15.0335C19.3912 15.0673 19.4469 15.0932 19.4877 15.1042C19.5375 15.1171 19.5793 15.0843 19.6002 15.0375C19.6175 15.0042 19.6267 14.9674 19.6271 14.9299C19.62 14.845 19.6081 14.7605 19.5913 14.677C19.5813 14.6192 19.5226 14.5844 19.4628 14.5903C19.4121 14.5963 19.3722 14.6202 19.3593 14.672C19.3474 14.7168 19.3434 14.7646 19.3344 14.8214ZM22.5223 5.2269C22.4069 5.22607 22.2951 5.26631 22.2067 5.34042C22.1689 5.37528 22.1569 5.42606 22.1808 5.46987C22.1967 5.49975 22.2346 5.53261 22.2654 5.5356C22.3309 5.54514 22.3977 5.54152 22.4618 5.52493C22.5259 5.50834 22.5861 5.47913 22.6388 5.439C22.6985 5.39121 22.6766 5.27569 22.6049 5.2498C22.578 5.23984 22.5502 5.23486 22.5223 5.2269ZM1.65874 10.6181L1.66173 10.652C1.66671 10.7068 1.71449 10.7685 1.76029 10.7784C1.78873 10.7818 1.81748 10.7758 1.84213 10.7612C1.86679 10.7466 1.88596 10.7243 1.89669 10.6978C1.92655 10.6082 1.95144 10.5166 1.96837 10.4239C1.97733 10.3771 1.95344 10.3313 1.90864 10.3045C1.86483 10.2776 1.78916 10.2925 1.75232 10.3323C1.67467 10.415 1.65874 10.5166 1.65874 10.6181ZM6.33203 10.8462C6.33203 10.8302 6.33403 10.8023 6.33203 10.7735C6.3311 10.7498 6.32324 10.7269 6.30944 10.7076C6.29564 10.6883 6.2765 10.6735 6.25438 10.6649C6.2046 10.642 6.15879 10.6599 6.12295 10.6908C6.09358 10.7183 6.07062 10.7519 6.05566 10.7893C6.04071 10.8267 6.03414 10.8668 6.03642 10.907C6.03869 10.9472 6.04977 10.9864 6.06885 11.0218C6.08793 11.0572 6.11456 11.088 6.14685 11.112C6.19962 11.1499 6.2952 11.119 6.30814 11.0553C6.32108 10.9906 6.32307 10.9248 6.33203 10.8462ZM8.40883 13.3247C8.39091 13.3317 8.35905 13.3347 8.33914 13.3516C8.28682 13.4004 8.25118 13.4645 8.23724 13.5347C8.22331 13.605 8.23178 13.6778 8.26148 13.7429C8.28537 13.7867 8.32719 13.8236 8.37498 13.8086C8.41579 13.7967 8.46657 13.7618 8.48051 13.725C8.51237 13.6374 8.53029 13.5428 8.54523 13.4492C8.55518 13.3874 8.4825 13.3207 8.40883 13.3247ZM4.63157 7.4266C4.61464 7.33001 4.60269 7.24637 4.58577 7.16272C4.57868 7.13482 4.5625 7.11008 4.53978 7.09241C4.51706 7.07473 4.4891 7.06513 4.46032 7.06513C4.42683 7.06611 4.39466 7.07849 4.36914 7.10022C4.34362 7.12194 4.32627 7.15171 4.31995 7.18463C4.30766 7.2407 4.3107 7.29905 4.32874 7.35355C4.34679 7.40804 4.37917 7.45666 4.42249 7.49432C4.45236 7.5212 4.51409 7.53615 4.55093 7.5242C4.58577 7.51125 4.60667 7.45847 4.63057 7.4266H4.63157ZM13.7452 11.8649C13.7402 11.8151 13.7452 11.7623 13.7253 11.7225C13.7073 11.6856 13.6635 11.6438 13.6257 11.6388C13.5889 11.6348 13.5301 11.6647 13.5092 11.6976C13.4435 11.8011 13.4515 11.9146 13.5052 12.0232C13.5271 12.067 13.567 12.0959 13.6207 12.0869C13.6705 12.0789 13.7103 12.0531 13.7243 12.0033C13.7372 11.9575 13.7392 11.9097 13.7452 11.8649ZM22.5482 16.9026C22.5611 16.9554 22.5641 17.0171 22.593 17.0619C22.6129 17.0938 22.6686 17.1157 22.7105 17.1187C22.7383 17.1207 22.7871 17.0858 22.7941 17.0589C22.82 16.9693 22.8339 16.8757 22.8449 16.7821C22.8518 16.7283 22.804 16.6716 22.7513 16.6566C22.6866 16.6387 22.6079 16.6725 22.587 16.7343C22.5701 16.7871 22.5611 16.8438 22.5482 16.9026ZM14.5964 18.2519C14.5964 18.1911 14.5984 18.1722 14.5964 18.1533C14.5884 18.1035 14.5665 18.0627 14.5148 18.0467C14.465 18.0318 14.4152 18.0408 14.3843 18.0786C14.3421 18.1247 14.3138 18.1818 14.3027 18.2433C14.2916 18.3048 14.2982 18.3682 14.3216 18.4261C14.3495 18.4988 14.474 18.5158 14.5108 18.449C14.5526 18.3754 14.5785 18.2937 14.5964 18.2519ZM14.2619 13.6125C14.2519 13.5607 14.248 13.5139 14.234 13.4691C14.2111 13.3974 14.0986 13.3715 14.0458 13.4223C13.996 13.4734 13.9676 13.5417 13.9663 13.6131C13.965 13.6845 13.991 13.7537 14.0389 13.8067C14.0916 13.8614 14.2061 13.8435 14.23 13.7728C14.247 13.72 14.2519 13.6633 14.2619 13.6125ZM13.1697 6.67578C13.0753 6.66622 12.9806 6.69096 12.9029 6.74548C12.8571 6.77336 12.8342 6.84905 12.8531 6.89684C12.875 6.94862 12.9378 6.99344 12.9885 6.98647C13.0751 6.97552 13.1578 6.95261 13.2185 6.88489C13.2524 6.84805 13.2763 6.80025 13.2514 6.75544C13.2315 6.7176 13.1886 6.69271 13.1697 6.67578ZM13.9224 20.0732C13.9114 20.0343 13.9045 19.9975 13.8905 19.9627C13.8666 19.9029 13.7681 19.88 13.7213 19.9208C13.6287 20.0015 13.6048 20.1628 13.6775 20.2564C13.6974 20.2833 13.7432 20.3122 13.7721 20.3072C13.8129 20.3002 13.8647 20.2723 13.8846 20.2375C13.9104 20.1907 13.9104 20.129 13.9224 20.0732ZM18.6714 19.4498C18.6694 19.4309 18.6684 19.412 18.6654 19.3941C18.6621 19.3758 18.6574 19.3578 18.6514 19.3403C18.6425 19.3134 18.6255 19.2899 18.6027 19.2731C18.5798 19.2564 18.5523 19.2471 18.524 19.2467C18.491 19.2478 18.4596 19.261 18.4358 19.2838C18.4119 19.3065 18.3972 19.3373 18.3946 19.3702C18.3923 19.4162 18.399 19.4622 18.4145 19.5056C18.4384 19.5723 18.5031 19.6052 18.5708 19.5962C18.6345 19.5882 18.6733 19.5305 18.6704 19.4498H18.6714ZM19.4838 6.54235C19.567 6.54324 19.6476 6.51305 19.7097 6.4577C19.7695 6.40691 19.7496 6.30037 19.6749 6.2685C19.5843 6.22867 19.4947 6.24958 19.418 6.33422C19.3862 6.37007 19.3603 6.41787 19.3922 6.46368C19.417 6.49853 19.4599 6.52243 19.4838 6.54235ZM14.906 17.1615C14.8792 17.1246 14.8622 17.0798 14.8343 17.0699C14.7945 17.0559 14.7348 17.0519 14.7009 17.0729C14.6243 17.1217 14.5944 17.2023 14.6074 17.2949C14.6163 17.3517 14.6671 17.4015 14.7209 17.4055C14.7726 17.4104 14.8194 17.3915 14.8403 17.3477C14.8702 17.2899 14.8841 17.2252 14.906 17.1615ZM23.4243 15.8799C23.3964 15.849 23.3665 15.7953 23.3217 15.7753C23.2899 15.7614 23.2272 15.7833 23.1973 15.8102C23.1276 15.8729 23.1176 15.9845 23.1595 16.0701C23.1883 16.1298 23.2789 16.1428 23.3287 16.098C23.3894 16.0442 23.4123 15.9755 23.4243 15.8799ZM18.4892 10.2975C18.4941 10.2138 18.4414 10.1461 18.3627 10.1342C18.292 10.1232 18.2164 10.1869 18.2074 10.2666C18.1955 10.3662 18.2472 10.4459 18.3328 10.4598C18.4165 10.4727 18.4842 10.404 18.4892 10.2975ZM17.9685 18.6661C18.0033 18.6562 18.0242 18.6552 18.0382 18.6442C18.0693 18.6226 18.095 18.5941 18.1133 18.561C18.1316 18.5278 18.142 18.4909 18.1437 18.453C18.1457 18.4022 18.1268 18.3535 18.078 18.3395C18.0372 18.3276 17.9814 18.3246 17.9456 18.3435C17.853 18.3923 17.8271 18.5267 17.8898 18.6143C17.9087 18.6412 17.9486 18.6532 17.9695 18.6661H17.9685ZM13.4365 4.29086C13.5281 4.29484 13.6108 4.2311 13.6177 4.14845C13.6237 4.07875 13.5739 4.02796 13.4953 4.02298C13.3898 4.01601 13.3171 4.07078 13.3151 4.15841C13.3131 4.22314 13.3718 4.28787 13.4365 4.29086ZM19.8133 13.7887C19.9109 13.7808 19.9457 13.726 19.9696 13.6633C19.9771 13.6436 19.9794 13.6224 19.9765 13.6016C19.9735 13.5808 19.9654 13.5611 19.9528 13.5443C19.9401 13.5275 19.9235 13.5141 19.9043 13.5055C19.8851 13.4969 19.8641 13.4933 19.8432 13.495C19.8148 13.4961 19.7873 13.5056 19.7643 13.5222C19.7413 13.5389 19.7237 13.562 19.7137 13.5886C19.6928 13.6433 19.6938 13.7011 19.7356 13.7449C19.7595 13.7688 19.7974 13.7798 19.8133 13.7887Z" fill="black"/>
</svg>
