<svg width="43" height="35" viewBox="0 0 43 35" fill="none" xmlns="http://www.w3.org/2000/svg">
<path d="M42.0621 27.8924C42.0422 27.7331 42.0322 27.5738 42.0023 27.4144C41.9326 26.9932 41.6838 26.6845 41.3453 26.4405C41.2756 26.3937 41.2159 26.3599 41.196 26.2673C41.186 26.2235 41.1363 26.1826 41.0964 26.1508C40.977 26.0542 40.8574 25.9626 40.7379 25.867L29.4181 16.8969C26.7101 14.7469 24.0021 12.598 21.2842 10.4491L12.6823 3.63089C11.4676 2.66298 10.243 1.69606 9.01844 0.728148C8.90893 0.641513 8.80943 0.544925 8.70987 0.459287C8.65049 0.416479 8.58709 0.379465 8.52065 0.348753C8.27175 0.244195 8.02284 0.247183 7.76399 0.279048C7.60469 0.298964 7.44542 0.321863 7.28612 0.35572C6.54939 0.515047 5.97196 0.91536 5.55381 1.53773C5.38244 1.78552 5.27636 2.07252 5.24524 2.3722C5.24524 2.42299 5.24522 2.47875 5.22531 2.52357C5.17553 2.62314 5.20542 2.7058 5.2552 2.79144C5.28507 2.83027 5.30495 2.86712 5.34477 2.87907C5.43438 2.90097 5.48411 2.96072 5.54384 3.0135L10.5617 7.37507C12.6126 9.15057 14.6536 10.9241 16.6945 12.6996L21.5032 16.8749C23.2554 18.3965 24.9977 19.9171 26.75 21.4387L32.3053 26.2603C33.3407 27.1625 34.3761 28.0647 35.4215 28.9659C35.4812 29.0236 35.551 29.0804 35.6107 29.1401C35.8795 29.3921 36.1782 29.6102 36.4769 29.8183C36.666 29.9477 36.8453 30.0792 36.9846 30.2654C37.0444 30.3421 37.124 30.3689 37.2036 30.3879C37.2435 30.3968 37.2633 30.3749 37.2733 30.35C37.2932 30.3102 37.3032 30.2684 37.3231 30.2265C37.758 29.0697 38.4935 28.0498 39.4537 27.272C39.6528 27.1037 39.8818 26.9603 40.1108 26.8398C40.2801 26.7542 40.4592 26.6905 40.6483 26.6526C40.718 26.6377 40.7877 26.6427 40.8674 26.6596C41.0764 26.7064 41.2656 26.811 41.415 26.9663C41.4744 27.03 41.5247 27.1018 41.5643 27.1794C41.634 27.3089 41.6739 27.4513 41.6938 27.5977C41.7137 27.8297 41.7037 28.0637 41.6738 28.2967C41.6141 28.7378 41.4548 29.1441 41.2756 29.5434C40.957 30.2395 40.5289 30.8688 40.0411 31.4554C39.4327 32.1904 38.7179 32.8305 37.9204 33.3543C37.5123 33.6182 37.0942 33.8393 36.6263 33.9926C36.4072 34.0663 36.1782 34.1141 35.9392 34.142C35.6505 34.1769 35.3718 34.1161 35.1129 34.0016C35.078 33.9861 35.0472 33.9626 35.0232 33.9329C34.8839 33.7068 34.7943 33.4639 34.8242 33.188C34.8441 33.0466 34.8839 32.9132 34.9536 32.7937C35.093 32.5597 35.2324 32.3287 35.3818 32.1026C35.4515 31.9861 35.551 31.8826 35.6307 31.775C35.7501 31.6376 35.8795 31.5151 36.0288 31.4235C36.208 31.309 36.4072 31.2054 36.5964 31.1058C36.6998 31.0488 36.8167 31.0206 36.9348 31.0242C37.0145 31.0292 37.0643 31.0033 37.0942 30.9306C37.1041 30.9037 37.1239 30.8788 37.1339 30.8529C37.1538 30.8161 37.1539 30.7842 37.1141 30.7553C37.0444 30.6916 36.9746 30.6269 36.9049 30.5651C36.6262 30.3281 36.3474 30.0941 36.0687 29.8551C33.1814 27.3597 30.2843 24.8632 27.3971 22.3667C25.0973 20.3831 22.8074 18.3985 20.5076 16.4139L13.5783 10.4322C11.0595 8.25137 8.53069 6.07058 6.0019 3.8898C5.49414 3.44567 4.97639 3.00354 4.45868 2.55543C4.40297 2.50369 4.33684 2.46448 4.26472 2.44044C4.19259 2.41639 4.1161 2.40806 4.04049 2.41602C2.68649 2.49369 1.66104 3.24452 1.06369 3.98838C0.824746 4.28015 0.635647 4.5998 0.50622 4.95231C0.356882 5.34664 0.287137 5.75193 0.326961 6.17713C0.346872 6.3265 0.376716 6.46392 0.426495 6.60035L0.575858 6.9907C0.685373 7.0843 0.794966 7.17989 0.90448 7.27051C4.93662 10.4561 8.96865 13.6396 12.9908 16.8242C13.18 16.9735 13.3792 17.1229 13.5684 17.2723C13.6181 17.3111 13.658 17.328 13.7277 17.2902C13.7614 17.2688 13.7996 17.2555 13.8394 17.2514C13.8791 17.2472 13.9192 17.2523 13.9566 17.2663C14.0123 17.2808 14.0709 17.2794 14.1258 17.2623C14.2154 17.2384 14.2951 17.2484 14.3847 17.2543C14.5241 17.2623 14.6635 17.2733 14.8029 17.2633C15.1513 17.2384 15.4899 17.2434 15.8284 17.3011C15.8714 17.3063 15.915 17.3053 15.9578 17.2982C16.0972 17.2812 16.2365 17.2514 16.3759 17.2434C16.8438 17.2175 17.2819 17.3191 17.7001 17.5411C18.0457 17.7183 18.3533 17.9611 18.606 18.2561C18.7155 18.3786 18.8251 18.5001 18.9246 18.6216C18.9645 18.6594 18.9943 18.7002 19.0341 18.7311C19.2233 18.8705 19.4024 19.0199 19.6016 19.1404C20.1989 19.5019 20.7366 19.942 21.2343 20.4299C22.001 21.1867 22.668 22.0332 23.2654 22.9294C23.355 23.0628 23.4546 23.1913 23.5541 23.3147C23.7632 23.5637 23.9723 23.8077 24.1714 24.0546C24.4701 24.4031 24.8086 24.7069 25.177 24.9648C25.3263 25.0644 25.4756 25.1629 25.615 25.2585C25.9336 25.4637 26.2223 25.6997 26.4911 25.9606C26.7599 26.2225 26.9689 26.5312 27.178 26.8408C27.2576 26.9564 27.3274 27.0739 27.4071 27.1914C27.865 27.9044 28.3828 28.5755 28.9104 29.2407C28.9303 29.2746 28.9701 29.3074 28.99 29.3443C29.1095 29.5414 29.2688 29.6918 29.4579 29.8332C31.1604 31.1775 32.8629 32.5258 34.5653 33.8731L34.6848 33.9687C34.7346 34.0036 34.7744 34.0414 34.7943 34.1042C34.8042 34.1918 34.874 34.2396 34.9436 34.2824C35.1726 34.4158 35.4115 34.4716 35.6704 34.4856C35.9591 34.5015 36.2478 34.4517 36.5166 34.379C36.8352 34.2954 37.1439 34.1719 37.4426 34.0235C38.0067 33.7325 38.5346 33.3762 39.0156 32.962C39.8288 32.278 40.5308 31.4717 41.0964 30.5721C41.4549 30.0055 41.7535 29.409 41.9227 28.7597C42.0123 28.4222 42.0422 28.1782 42.0621 27.8934V27.8924Z" fill="black"/>
</svg>
