<svg width="550" height="566" viewBox="0 0 550 566" fill="none" xmlns="http://www.w3.org/2000/svg">
<path d="M276.122 0.911377L279.694 8.2279L287.372 5.59167L284.746 13.3006L292.031 16.8885L284.746 20.4764L287.372 28.1853L279.694 25.5491L276.122 32.8656L272.55 25.5491L264.873 28.1853L267.499 20.4764L260.213 16.8885L267.499 13.3016L264.873 5.59067L272.55 8.2279L276.122 0.911377ZM16.6049 271.524L20.1765 278.84L27.8536 276.203L25.2286 283.914L32.514 287.501L25.2286 291.088L27.8536 298.799L20.1775 296.161L16.6039 303.478L13.0313 296.161L5.35518 298.799L7.98018 291.088L0.695801 287.501L7.98118 283.914L5.35617 276.203L13.0323 278.84L16.6049 271.524ZM533.651 271.524L537.223 278.84L544.901 276.203L542.275 283.914L549.56 287.501L542.275 291.088L544.901 298.799L537.223 296.161L533.651 303.478L530.079 296.161L522.401 298.799L525.027 291.088L517.742 287.501L525.027 283.914L522.401 276.203L530.079 278.84L533.651 271.524ZM276.122 533.149L279.694 540.465L287.372 537.828L284.746 545.539L292.031 549.126L284.746 552.713L287.372 560.424L279.694 557.787L276.122 565.103L272.55 557.787L264.873 560.424L267.499 552.713L260.213 549.126L267.499 545.539L264.873 537.828L272.55 540.465L276.122 533.149Z" fill="#8B83F6"/>
</svg>
